<svg xmlns="http://www.w3.org/2000/svg" version="1.1" xmlns:xlink="http://www.w3.org/1999/xlink" xmlns:svgjs="http://svgjs.dev/svgjs" width="2000" height="1252" viewBox="0 0 2000 1252"><g transform="matrix(1,0,0,1,-1.2121212121212466,-2.01935483870966)"><svg viewBox="0 0 396 248" data-background-color="#ffffff" preserveAspectRatio="xMidYMid meet" height="1252" width="2000" xmlns="http://www.w3.org/2000/svg" xmlns:xlink="http://www.w3.org/1999/xlink"><g id="tight-bounds" transform="matrix(1,0,0,1,0.2400000000000091,0.4000000000000057)"><svg viewBox="0 0 395.52 247.2" height="247.2" width="395.52"><g><svg></svg></g><g><svg viewBox="0 0 395.52 247.2" height="247.2" width="395.52"><g transform="matrix(1,0,0,1,75.54432,100.69626947368421)"><svg viewBox="0 0 244.43135999999998 45.807461052631574" height="45.807461052631574" width="244.43135999999998"><g><svg viewBox="0 0 244.43135999999998 45.807461052631574" height="45.807461052631574" width="244.43135999999998"><g><svg viewBox="0 0 244.43135999999998 45.807461052631574" height="45.807461052631574" width="244.43135999999998"><g><svg viewBox="0 0 244.43135999999998 45.807461052631574" height="45.807461052631574" width="244.43135999999998"><g id="textblocktransform"><svg viewBox="0 0 244.43135999999998 45.807461052631574" height="45.807461052631574" width="244.43135999999998" id="textblock"><g><svg viewBox="0 0 244.43135999999998 45.807461052631574" height="45.807461052631574" width="244.43135999999998"><g transform="matrix(1,0,0,1,0,0)"><svg width="244.43135999999998" viewBox="1.95 -35.23 191.10000000000002 35.82" height="45.807461052631574" data-palette-color="#3c24f2"><path d="M1.95-31.35L1.95-35.11 28.25-35.11 28.25-31.35 17.46-31.35 17.46 0 12.87 0 12.87-31.35 1.95-31.35ZM43.75-25.95L43.75-25.95Q44.94-25.95 46.24-25.77 47.53-25.59 48.78-25.07L48.78-25.07Q50.02-24.54 51.13-23.62 52.24-22.71 53.1-21.24L53.1-21.24Q53.95-19.75 54.44-17.66 54.93-15.58 54.93-12.7L54.93-12.7Q54.93-9.81 54.44-7.73 53.95-5.64 53.1-4.17L53.1-4.17Q52.24-2.69 51.13-1.76 50.02-0.83 48.78-0.32L48.78-0.32Q47.53 0.22 46.24 0.4 44.94 0.59 43.75 0.59L43.75 0.59Q42.58 0.59 41.29 0.4 40.01 0.22 38.77-0.32L38.77-0.32Q37.52-0.83 36.42-1.76 35.32-2.69 34.47-4.17L34.47-4.17Q33.62-5.64 33.13-7.73 32.64-9.81 32.64-12.7L32.64-12.7Q32.64-15.58 33.13-17.66 33.62-19.75 34.47-21.24L34.47-21.24Q35.32-22.71 36.42-23.62 37.52-24.54 38.77-25.07L38.77-25.07Q40.01-25.59 41.28-25.77 42.55-25.95 43.75-25.95ZM43.75-22.51L43.75-22.51Q42.36-22.51 41.12-22.07 39.89-21.63 38.96-20.53L38.96-20.53Q38.01-19.41 37.45-17.53 36.89-15.65 36.89-12.7L36.89-12.7Q36.89-9.77 37.45-7.87 38.01-5.98 38.96-4.88L38.96-4.88Q39.89-3.76 41.12-3.33 42.36-2.91 43.75-2.91L43.75-2.91Q45.16-2.91 46.42-3.33 47.68-3.76 48.63-4.88L48.63-4.88Q49.58-5.98 50.13-7.87 50.68-9.77 50.68-12.7L50.68-12.7Q50.68-15.65 50.13-17.53 49.58-19.41 48.63-20.53L48.63-20.53Q47.68-21.63 46.42-22.07 45.16-22.51 43.75-22.51ZM76.31-25.34L76.31-35.16 80.51-35.16 80.51-9.59Q80.51-5.3 80.63-3.96L80.63-3.96Q80.76-2.29 81.2-0.39L81.2-0.39 77.14 0.51Q76.73-0.85 76.53-2.25L76.53-2.25Q76.29-3.96 76.26-4.88L76.26-4.88 75.9-4.88Q74.63-2.25 73.09-1L73.09-1Q71.24 0.59 68.5 0.59L68.5 0.59Q66.11 0.59 64.37-0.45 62.64-1.49 61.68-3.34 60.71-5.2 60.26-7.42 59.81-9.64 59.81-12.33L59.81-12.33Q59.81-15.36 60.43-17.77 61.05-20.19 62.35-22.06 63.64-23.93 65.82-24.94 67.99-25.95 70.92-25.95L70.92-25.95Q73.21-25.95 76.31-25.34L76.31-25.34ZM76.31-10.28L76.31-10.28 76.31-21.63Q73.55-22.36 71.24-22.36L71.24-22.36Q69.26-22.36 67.83-21.64 66.4-20.92 65.6-19.62 64.79-18.31 64.42-16.7 64.06-15.09 64.06-13.09L64.06-13.09Q64.06-11.72 64.12-10.68 64.18-9.64 64.34-8.44 64.5-7.23 64.84-6.37 65.18-5.52 65.69-4.79 66.21-4.05 67.02-3.67 67.84-3.3 68.92-3.3L68.92-3.3Q71.5-3.3 73.41-5.37L73.41-5.37Q74.78-6.88 76.31-10.28ZM98.33-25.95L98.33-25.95Q99.53-25.95 100.82-25.77 102.12-25.59 103.36-25.07L103.36-25.07Q104.61-24.54 105.72-23.62 106.83-22.71 107.68-21.24L107.68-21.24Q108.54-19.75 109.03-17.66 109.51-15.58 109.51-12.7L109.51-12.7Q109.51-9.81 109.03-7.73 108.54-5.64 107.68-4.17L107.68-4.17Q106.83-2.69 105.72-1.76 104.61-0.83 103.36-0.32L103.36-0.32Q102.12 0.22 100.82 0.4 99.53 0.59 98.33 0.59L98.33 0.59Q97.16 0.59 95.88 0.4 94.6 0.22 93.35-0.32L93.35-0.32Q92.11-0.83 91.01-1.76 89.91-2.69 89.06-4.17L89.06-4.17Q88.2-5.64 87.71-7.73 87.22-9.81 87.22-12.7L87.22-12.7Q87.22-15.58 87.71-17.66 88.2-19.75 89.06-21.24L89.06-21.24Q89.91-22.71 91.01-23.62 92.11-24.54 93.35-25.07L93.35-25.07Q94.6-25.59 95.87-25.77 97.14-25.95 98.33-25.95ZM98.33-22.51L98.33-22.51Q96.94-22.51 95.71-22.07 94.47-21.63 93.55-20.53L93.55-20.53Q92.6-19.41 92.03-17.53 91.47-15.65 91.47-12.7L91.47-12.7Q91.47-9.77 92.03-7.87 92.6-5.98 93.55-4.88L93.55-4.88Q94.47-3.76 95.71-3.33 96.94-2.91 98.33-2.91L98.33-2.91Q99.75-2.91 101.01-3.33 102.26-3.76 103.22-4.88L103.22-4.88Q104.17-5.98 104.72-7.87 105.27-9.77 105.27-12.7L105.27-12.7Q105.27-15.65 104.72-17.53 104.17-19.41 103.22-20.53L103.22-20.53Q102.26-21.63 101.01-22.07 99.75-22.51 98.33-22.51ZM116.71 0L116.71-35.11 121.3-35.11 121.3-3.76 135.68-3.76 135.68 0 116.71 0ZM143.96-35.23L143.96-35.23Q145.08-35.23 145.91-34.45L145.91-34.45Q146.72-33.59 146.72-32.45L146.72-32.45Q146.72-31.27 145.91-30.47L145.91-30.47Q145.08-29.64 143.96-29.64L143.96-29.64Q142.79-29.64 141.96-30.47L141.96-30.47Q141.13-31.25 141.13-32.45L141.13-32.45Q141.13-33.62 141.96-34.45L141.96-34.45Q142.79-35.23 143.96-35.23ZM141.81 0L141.81-25.39 146.01-25.39 146.01 0 141.81 0ZM162.29-25.95L162.29-25.95Q164.29-25.95 166.31-25.54 168.32-25.12 170.05-24.39L170.05-24.39Q169.71-23.61 169.35-22.85 168.98-22.09 168.54-21.36L168.54-21.36Q167.93-21.61 167.18-21.85 166.44-22.09 165.62-22.27 164.8-22.44 163.94-22.55 163.07-22.66 162.24-22.66L162.24-22.66Q161.34-22.66 160.5-22.47 159.65-22.29 159.01-21.88 158.36-21.46 157.97-20.79 157.58-20.12 157.58-19.12L157.58-19.12Q157.58-18.09 158.02-17.4 158.46-16.7 159.21-16.24 159.97-15.77 160.98-15.45 162-15.14 163.14-14.87L163.14-14.87Q164.93-14.43 166.46-13.88 168-13.33 169.13-12.45 170.25-11.57 170.88-10.28 171.52-8.98 171.52-7.08L171.52-7.08Q171.52-5.08 170.72-3.64 169.93-2.2 168.58-1.26 167.22-0.32 165.41 0.13 163.61 0.59 161.56 0.59L161.56 0.59Q160.48 0.59 159.35 0.45 158.21 0.32 157.1 0.06 155.99-0.2 154.92-0.56 153.84-0.93 152.89-1.37L152.89-1.37Q153.23-2.15 153.61-2.89 153.99-3.64 154.4-4.37L154.4-4.37Q155.21-4.03 156.11-3.72 157.02-3.42 157.97-3.2 158.92-2.98 159.85-2.84 160.78-2.71 161.63-2.71L161.63-2.71Q162.7-2.71 163.72-2.95 164.73-3.2 165.52-3.72 166.32-4.25 166.79-5.08 167.27-5.91 167.27-7.08L167.27-7.08Q167.27-8.18 166.82-8.89 166.37-9.59 165.61-10.07 164.85-10.55 163.84-10.85 162.83-11.16 161.7-11.43L161.7-11.43Q159.99-11.84 158.47-12.38 156.94-12.92 155.81-13.78 154.67-14.65 154-15.93 153.33-17.21 153.33-19.12L153.33-19.12Q153.33-20.9 154.06-22.19 154.79-23.49 156.03-24.32 157.26-25.15 158.88-25.55 160.51-25.95 162.29-25.95ZM180.3-25.39L180.3-31.2 184.5-31.2 184.5-25.39 193.05-25.39 193.05-21.85 184.5-21.85 184.5-7.28Q184.5-5.81 184.59-5.04 184.67-4.27 185.02-3.83L185.02-3.83Q185.65-2.95 187.58-2.95L187.58-2.95Q188.65-2.95 189.66-3.17L189.66-3.17Q190.68-3.39 191.54-3.66L191.54-3.66Q192.22-2.17 192.78-0.39L192.78-0.39Q189.9 0.59 186.97 0.59L186.97 0.59Q184.85 0.59 183.56 0.11 182.28-0.37 181.55-1.44L181.55-1.44Q180.79-2.56 180.55-4.13 180.3-5.69 180.3-8.45L180.3-8.45 180.3-21.85 176.64-21.85 176.64-25.39 180.3-25.39Z" opacity="1" transform="matrix(1,0,0,1,0,0)" fill="#3c24f2" class="wordmark-text-0" data-fill-palette-color="primary" id="text-0"></path></svg></g></svg></g></svg></g></svg></g></svg></g></svg></g></svg></g><path d="M188.008 94.696L188.008 33.414 7.636 33.414 7.636 213.786 188.008 213.786 188.008 152.504 183.877 152.504 183.877 209.655 11.767 209.655 11.767 37.545 183.877 37.545 183.877 94.696Z" fill="#3c24f2" stroke="transparent" data-fill-palette-color="tertiary"></path></svg></g><defs></defs></svg><rect width="395.52" height="247.2" fill="none" stroke="none" visibility="hidden"></rect></g></svg></g></svg>